# Blender 3.6.5
# www.blender.org
mtllib MetalPipe4.mtl
o Cylinder.001
v 0.370312 -1.180574 -6.938649
v 0.370312 2.131791 -6.938649
v 0.693417 -1.180574 -6.906826
v 0.693417 2.131791 -6.906826
v 1.004106 -1.180574 -6.812579
v 1.004106 2.131791 -6.812579
v 1.290438 -1.180574 -6.659532
v 1.290438 2.131791 -6.659532
v 1.541410 -1.180574 -6.453564
v 1.541410 2.131791 -6.453564
v 1.747377 -1.180574 -6.202592
v 1.747377 2.131791 -6.202592
v 1.900425 -1.180574 -5.916260
v 1.900425 2.131791 -5.916260
v 1.994671 -1.180574 -5.605572
v 1.994671 2.131791 -5.605572
v 2.026495 -1.180574 -5.282466
v 2.026495 2.131791 -5.282466
v 1.994671 -1.180574 -4.959361
v 1.994671 2.131791 -4.959361
v 1.900425 -1.180574 -4.648673
v 1.900425 2.131791 -4.648673
v 1.747377 -1.180574 -4.362341
v 1.747377 2.131791 -4.362341
v 1.541410 -1.180574 -4.111369
v 1.541410 2.131791 -4.111369
v 1.290438 -1.180574 -3.905401
v 1.290438 2.131791 -3.905401
v 1.004106 -1.180574 -3.752353
v 1.004106 2.131791 -3.752353
v 0.693417 -1.180574 -3.658107
v 0.693417 2.131791 -3.658107
v 0.370312 -1.180574 -3.626284
v 0.370312 2.131791 -3.626284
v 0.047207 -1.180574 -3.658107
v 0.047207 2.131791 -3.658107
v -0.263482 -1.180574 -3.752353
v -0.263482 2.131791 -3.752353
v -0.549814 -1.180574 -3.905401
v -0.549814 2.131791 -3.905401
v -0.800786 -1.180574 -4.111369
v -0.800786 2.131791 -4.111369
v -1.006753 -1.180574 -4.362341
v -1.006753 2.131791 -4.362341
v -1.159801 -1.180574 -4.648673
v -1.159801 2.131791 -4.648673
v -1.254047 -1.180574 -4.959361
v -1.254047 2.131791 -4.959361
v -1.285870 -1.180574 -5.282466
v -1.285870 2.131791 -5.282466
v -1.254047 -1.180574 -5.605572
v -1.254047 2.131791 -5.605572
v -1.159801 -1.180574 -5.916260
v -1.159801 2.131791 -5.916260
v -1.006753 -1.180574 -6.202592
v -1.006753 2.131791 -6.202592
v -0.800786 -1.180574 -6.453564
v -0.800786 2.131791 -6.453564
v -0.549814 -1.180574 -6.659532
v -0.549814 2.131791 -6.659532
v -0.263482 -1.180574 -6.812579
v -0.263482 2.131791 -6.812579
v 0.047207 -1.180574 -6.906826
v 0.047207 2.131791 -6.906826
v 0.783887 2.131791 -7.361648
v 0.370312 2.131791 -7.402381
v 1.181568 2.131791 -7.241013
v 1.548074 2.131791 -7.045111
v 1.869318 2.131791 -6.781473
v 2.132957 2.131791 -6.460228
v 2.328858 2.131791 -6.093723
v 2.449493 2.131791 -5.696041
v 2.490227 2.131791 -5.282466
v 2.449493 2.131791 -4.868892
v 2.328858 2.131791 -4.471210
v 2.132957 2.131791 -4.104705
v 1.869318 2.131791 -3.783460
v 1.548074 2.131791 -3.519822
v 1.181568 2.131791 -3.323920
v 0.783887 2.131791 -3.203285
v 0.370312 2.131791 -3.162551
v -0.043263 2.131791 -3.203285
v -0.440944 2.131791 -3.323920
v -0.807450 2.131791 -3.519822
v -1.128694 2.131791 -3.783460
v -1.392333 2.131791 -4.104705
v -1.588234 2.131791 -4.471210
v -1.708869 2.131791 -4.868892
v -1.749603 2.131791 -5.282466
v -1.708869 2.131791 -5.696041
v -1.588234 2.131791 -6.093723
v -1.392333 2.131791 -6.460228
v -1.128694 2.131791 -6.781473
v -0.807450 2.131791 -7.045111
v -0.440944 2.131791 -7.241013
v -0.043263 2.131791 -7.361648
v 0.659607 2.743280 -6.736853
v 0.370312 2.743280 -6.765346
v 0.937786 2.743280 -6.652469
v 1.194156 2.743280 -6.515436
v 1.418866 2.743280 -6.331021
v 1.603281 2.743280 -6.106310
v 1.740314 2.743280 -5.849940
v 1.824698 2.743280 -5.571762
v 1.853192 2.743280 -5.282466
v 1.824698 2.743280 -4.993171
v 1.740314 2.743280 -4.714993
v 1.603281 2.743280 -4.458622
v 1.418866 2.743280 -4.233912
v 1.194156 2.743280 -4.049497
v 0.937786 2.743280 -3.912464
v 0.659607 2.743280 -3.828080
v 0.370312 2.743280 -3.799587
v 0.081017 2.743280 -3.828080
v -0.197162 2.743280 -3.912464
v -0.453532 2.743280 -4.049497
v -0.678242 2.743280 -4.233912
v -0.862657 2.743280 -4.458622
v -0.999690 2.743280 -4.714993
v -1.084074 2.743280 -4.993171
v -1.112568 2.743280 -5.282466
v -1.084074 2.743280 -5.571762
v -0.999690 2.743280 -5.849940
v -0.862657 2.743280 -6.106310
v -0.678242 2.743280 -6.331021
v -0.453532 2.743280 -6.515436
v -0.197162 2.743280 -6.652469
v 0.081017 2.743280 -6.736853
v 0.783887 2.743280 -7.361648
v 0.370312 2.743280 -7.402381
v 1.181568 2.743280 -7.241013
v 1.548074 2.743280 -7.045111
v 1.869318 2.743280 -6.781473
v 2.132957 2.743280 -6.460228
v 2.328858 2.743280 -6.093723
v 2.449493 2.743280 -5.696041
v 2.490227 2.743280 -5.282466
v 2.449493 2.743280 -4.868892
v 2.328858 2.743280 -4.471210
v 2.132957 2.743280 -4.104705
v 1.869318 2.743280 -3.783460
v 1.548074 2.743280 -3.519822
v 1.181568 2.743280 -3.323920
v 0.783887 2.743280 -3.203285
v 0.370312 2.743280 -3.162551
v -0.043263 2.743280 -3.203285
v -0.440944 2.743280 -3.323920
v -0.807450 2.743280 -3.519822
v -1.128694 2.743280 -3.783460
v -1.392333 2.743280 -4.104705
v -1.588234 2.743280 -4.471210
v -1.708869 2.743280 -4.868892
v -1.749603 2.743280 -5.282466
v -1.708869 2.743280 -5.696041
v -1.588234 2.743280 -6.093723
v -1.392333 2.743280 -6.460228
v -1.128694 2.743280 -6.781473
v -0.807450 2.743280 -7.045111
v -0.440944 2.743280 -7.241013
v -0.043263 2.743280 -7.361648
v 0.659607 0.810918 -6.736853
v 0.370312 0.810918 -6.765346
v 0.937786 0.810918 -6.652469
v 1.194156 0.810918 -6.515436
v 1.418866 0.810918 -6.331021
v 1.603281 0.810918 -6.106310
v 1.740314 0.810918 -5.849940
v 1.824698 0.810918 -5.571762
v 1.853192 0.810918 -5.282466
v 1.824698 0.810918 -4.993171
v 1.740314 0.810918 -4.714993
v 1.603281 0.810918 -4.458622
v 1.418866 0.810918 -4.233912
v 1.194156 0.810918 -4.049497
v 0.937786 0.810918 -3.912464
v 0.659607 0.810918 -3.828080
v 0.370312 0.810918 -3.799587
v 0.081017 0.810918 -3.828080
v -0.197162 0.810918 -3.912464
v -0.453532 0.810918 -4.049497
v -0.678242 0.810918 -4.233912
v -0.862657 0.810918 -4.458622
v -0.999690 0.810918 -4.714993
v -1.084074 0.810918 -4.993171
v -1.112568 0.810918 -5.282466
v -1.084074 0.810918 -5.571762
v -0.999690 0.810918 -5.849940
v -0.862657 0.810918 -6.106310
v -0.678242 0.810918 -6.331021
v -0.453532 0.810918 -6.515436
v -0.197162 0.810918 -6.652469
v 0.081017 0.810918 -6.736853
vn -0.0000 -0.0000 -1.0000
vn 0.1951 -0.0000 -0.9808
vn 0.3827 -0.0000 -0.9239
vn 0.5556 -0.0000 -0.8315
vn 0.7071 -0.0000 -0.7071
vn 0.8315 -0.0000 -0.5556
vn 0.9239 -0.0000 -0.3827
vn 0.9808 -0.0000 -0.1951
vn 1.0000 -0.0000 -0.0000
vn 0.9808 -0.0000 0.1951
vn 0.9239 -0.0000 0.3827
vn 0.8315 -0.0000 0.5556
vn 0.7071 -0.0000 0.7071
vn 0.5556 -0.0000 0.8315
vn 0.3827 -0.0000 0.9239
vn 0.1951 -0.0000 0.9808
vn -0.0000 -0.0000 1.0000
vn -0.1951 -0.0000 0.9808
vn -0.3827 -0.0000 0.9239
vn -0.5556 -0.0000 0.8315
vn -0.7071 -0.0000 0.7071
vn -0.8315 -0.0000 0.5556
vn -0.9239 -0.0000 0.3827
vn -0.9808 -0.0000 0.1951
vn -1.0000 -0.0000 -0.0000
vn -0.9808 -0.0000 -0.1951
vn -0.9239 -0.0000 -0.3827
vn -0.8315 -0.0000 -0.5556
vn -0.7071 -0.0000 -0.7071
vn -0.5556 -0.0000 -0.8315
vn -0.3827 -0.0000 -0.9239
vn -0.0000 -1.0000 -0.0000
vn -0.1951 -0.0000 -0.9808
vn -0.0000 1.0000 -0.0000
vt 0.105692 0.772274
vt 0.280445 0.826656
vt 0.280709 0.836801
vt 0.098718 0.772289
vt 0.280508 0.848731
vt 0.091751 0.770862
vt 0.279699 0.862779
vt 0.082268 0.768969
vt 0.278049 0.879356
vt 0.072901 0.765271
vt 0.275145 0.898968
vt 0.060652 0.760811
vt 0.270299 0.922166
vt 0.047429 0.754598
vt 0.262463 0.949672
vt 0.030924 0.747200
vt 0.248627 0.980414
vt 0.000000 0.741273
vt -0.000000 0.160241
vt 0.059895 0.223735
vt 0.020093 0.721683
vt 0.097472 0.290099
vt 0.031347 0.707303
vt 0.122665 0.350691
vt 0.040982 0.697580
vt 0.140668 0.404130
vt 0.051700 0.690220
vt 0.154252 0.451132
vt 0.060905 0.685874
vt 0.164976 0.492798
vt 0.069778 0.683626
vt 0.174004 0.530328
vt 0.077352 0.683286
vt 0.181794 0.564807
vt 0.087548 0.684996
vt 0.188815 0.596806
vt 0.096680 0.687621
vt 0.195471 0.626986
vt 0.105117 0.691929
vt 0.202124 0.655862
vt 0.112688 0.696553
vt 0.209153 0.683819
vt 0.119299 0.702390
vt 0.216989 0.711055
vt 0.125133 0.708064
vt 0.226108 0.737425
vt 0.130000 0.714085
vt 0.236623 0.762460
vt 0.134007 0.719522
vt 0.249859 0.782367
vt 0.135470 0.727848
vt 0.259496 0.789321
vt 0.135982 0.735415
vt 0.266356 0.792858
vt 0.135068 0.742764
vt 0.271172 0.796052
vt 0.132932 0.749572
vt 0.274535 0.799910
vt 0.129511 0.755744
vt 0.276878 0.804780
vt 0.124626 0.761618
vt 0.278495 0.810799
vt 0.118393 0.766832
vt 0.299213 0.846083
vt 0.301434 0.860220
vt 0.279783 0.818049
vt 0.110447 0.771940
vt 0.308092 0.922589
vt 0.305911 0.897370
vt 0.342398 0.887196
vt 0.353243 0.910832
vt 0.195773 0.337532
vt 0.201145 0.396041
vt 0.236608 0.677324
vt 0.242897 0.704351
vt 0.287488 0.801288
vt 0.290116 0.807666
vt 0.309951 0.955470
vt 0.310825 1.000000
vt 0.218074 0.559819
vt 0.222119 0.591603
vt 0.272374 0.790161
vt 0.276862 0.789238
vt 0.303670 0.877056
vt 0.205738 0.445186
vt 0.250200 0.731807
vt 0.292470 0.815196
vt 0.147217 -0.000000
vt 0.176389 0.161891
vt 0.226459 0.621450
vt 0.281013 0.791790
vt 0.209858 0.487907
vt 0.259449 0.761303
vt 0.294772 0.823899
vt 0.297000 0.834105
vt 0.188636 0.263753
vt 0.231224 0.649873
vt 0.284516 0.795969
vt 0.214271 0.525452
vt 0.269614 0.800733
vt 0.308368 0.764619
vt 0.307166 0.754987
vt 0.362025 0.708524
vt 0.364385 0.715638
vt 0.264852 0.644866
vt 0.267622 0.670716
vt 0.367766 0.940949
vt 0.271627 0.695884
vt 0.389268 0.980752
vt 0.275685 0.719949
vt 0.394902 0.085836
vt 0.334697 0.197618
vt 0.280329 0.742685
vt 0.303538 0.282593
vt 0.284890 0.762384
vt 0.285757 0.349054
vt 0.288180 0.771469
vt 0.275049 0.403207
vt 0.291322 0.777743
vt 0.268503 0.449810
vt 0.294474 0.783379
vt 0.264234 0.490055
vt 0.312091 0.818104
vt 0.316532 0.827945
vt 0.297660 0.789053
vt 0.262028 0.526011
vt 0.321545 0.839347
vt 0.300940 0.795194
vt 0.261205 0.558829
vt 0.327313 0.852691
vt 0.304412 0.801958
vt 0.261519 0.589244
vt 0.334108 0.868523
vt 0.308086 0.809528
vt 0.262780 0.617793
vt 0.331673 0.808169
vt 0.338415 0.816935
vt 0.346334 0.826802
vt 0.355691 0.837984
vt 0.367036 0.850728
vt 0.381277 0.864873
vt 0.398644 0.881382
vt 0.420753 0.899750
vt 0.448863 0.919077
vt 0.520476 0.278594
vt 0.459295 0.312205
vt 0.413218 0.352139
vt 0.379375 0.392685
vt 0.354746 0.431463
vt 0.337298 0.468386
vt 0.324820 0.501981
vt 0.316003 0.533240
vt 0.309972 0.562469
vt 0.306086 0.589972
vt 0.303859 0.616022
vt 0.302904 0.640843
vt 0.302908 0.664510
vt 0.303422 0.686780
vt 0.304527 0.707584
vt 0.305668 0.726450
vt 0.306554 0.742553
vt 0.310347 0.772551
vt 0.313076 0.779625
vt 0.316833 0.786180
vt 0.320987 0.793032
vt 0.325906 0.800277
vt 0.415161 0.736672
vt 0.404321 0.737100
vt 0.394556 0.736100
vt 0.386665 0.734347
vt 0.379374 0.731080
vt 0.373471 0.727037
vt 0.368436 0.721797
vt 0.360490 0.700416
vt 0.359640 0.691328
vt 0.359139 0.681277
vt 0.362289 0.673101
vt 0.366061 0.664056
vt 0.370669 0.654671
vt 0.376261 0.645282
vt 0.382397 0.639731
vt 0.389996 0.634907
vt 0.399251 0.631230
vt 0.410616 0.629123
vt 0.419856 0.628875
vt 0.431762 0.632033
vt 0.446102 0.639205
vt 0.462801 0.651280
vt 0.488927 0.663274
vt 0.518721 0.681874
vt 0.493497 0.696035
vt 0.472127 0.707181
vt 0.457354 0.717872
vt 0.446098 0.725884
vt 0.435739 0.731666
vt 0.428410 0.735436
s 1
usemtl Copper_Rough
f 1/1/1 2/2/1 4/3/2 3/4/2
f 3/4/2 4/3/2 6/5/3 5/6/3
f 5/6/3 6/5/3 8/7/4 7/8/4
f 7/8/4 8/7/4 10/9/5 9/10/5
f 9/10/5 10/9/5 12/11/6 11/12/6
f 11/12/6 12/11/6 14/13/7 13/14/7
f 13/14/7 14/13/7 16/15/8 15/16/8
f 15/16/8 16/15/8 18/17/9 17/18/9
f 17/18/9 18/19/9 20/20/10 19/21/10
f 19/21/10 20/20/10 22/22/11 21/23/11
f 21/23/11 22/22/11 24/24/12 23/25/12
f 23/25/12 24/24/12 26/26/13 25/27/13
f 25/27/13 26/26/13 28/28/14 27/29/14
f 27/29/14 28/28/14 30/30/15 29/31/15
f 29/31/15 30/30/15 32/32/16 31/33/16
f 31/33/16 32/32/16 34/34/17 33/35/17
f 33/35/17 34/34/17 36/36/18 35/37/18
f 35/37/18 36/36/18 38/38/19 37/39/19
f 37/39/19 38/38/19 40/40/20 39/41/20
f 39/41/20 40/40/20 42/42/21 41/43/21
f 41/43/21 42/42/21 44/44/22 43/45/22
f 43/45/22 44/44/22 46/46/23 45/47/23
f 45/47/23 46/46/23 48/48/24 47/49/24
f 47/49/24 48/48/24 50/50/25 49/51/25
f 49/51/25 50/50/25 52/52/26 51/53/26
f 51/53/26 52/52/26 54/54/27 53/55/27
f 53/55/27 54/54/27 56/56/28 55/57/28
f 55/57/28 56/56/28 58/58/29 57/59/29
f 57/59/29 58/58/29 60/60/30 59/61/30
f 59/61/30 60/60/30 62/62/31 61/63/31
f 8/7/32 6/5/32 67/64/32 68/65/32
f 61/63/31 62/62/31 64/66/33 63/67/33
f 63/67/33 64/66/33 2/2/1 1/1/1
f 1/1/32 3/4/32 5/6/32 7/8/32 9/10/32 11/12/32 13/14/32 15/16/32 17/18/32 19/21/32 21/23/32 23/25/32 25/27/32 27/29/32 29/31/32 31/33/32 33/35/32 35/37/32 37/39/32 39/41/32 41/43/32 43/45/32 45/47/32 47/49/32 49/51/32 51/53/32 53/55/32 55/57/32 57/59/32 59/61/32 61/63/32 63/67/32
f 71/68/7 70/69/6 134/70/6 135/71/7
f 26/26/32 24/24/32 76/72/32 77/73/32
f 44/44/32 42/42/32 85/74/32 86/75/32
f 62/62/32 60/60/32 94/76/32 95/77/32
f 18/17/32 16/15/32 72/78/32 73/79/32
f 36/36/32 34/34/32 81/80/32 82/81/32
f 54/54/32 52/52/32 90/82/32 91/83/32
f 10/9/32 8/7/32 68/65/32 69/84/32
f 28/28/32 26/26/32 77/73/32 78/85/32
f 46/46/32 44/44/32 86/75/32 87/86/32
f 64/66/32 62/62/32 95/77/32 96/87/32
f 20/20/32 18/19/32 73/88/32 74/89/32
f 38/38/32 36/36/32 82/81/32 83/90/32
f 56/56/32 54/54/32 91/83/32 92/91/32
f 12/11/32 10/9/32 69/84/32 70/69/32
f 30/30/32 28/28/32 78/85/32 79/92/32
f 48/48/32 46/46/32 87/86/32 88/93/32
f 4/3/32 2/2/32 66/94/32 65/95/32
f 2/2/32 64/66/32 96/87/32 66/94/32
f 22/22/32 20/20/32 74/89/32 75/96/32
f 40/40/32 38/38/32 83/90/32 84/97/32
f 58/58/32 56/56/32 92/91/32 93/98/32
f 14/13/32 12/11/32 70/69/32 71/68/32
f 32/32/32 30/30/32 79/92/32 80/99/32
f 50/50/32 48/48/32 88/93/32 89/100/32
f 6/5/32 4/3/32 65/95/32 67/64/32
f 24/24/32 22/22/32 75/96/32 76/72/32
f 42/42/32 40/40/32 84/97/32 85/74/32
f 60/60/32 58/58/32 93/98/32 94/76/32
f 16/15/32 14/13/32 71/68/32 72/78/32
f 34/34/32 32/32/32 80/99/32 81/80/32
f 52/52/32 50/50/32 89/100/32 90/82/32
f 123/101/11 122/102/10 186/103/10 187/104/11
f 85/74/21 84/97/20 148/105/20 149/106/21
f 72/78/8 71/68/7 135/71/7 136/107/8
f 86/75/22 85/74/21 149/106/21 150/108/22
f 73/79/9 72/78/8 136/107/8 137/109/9
f 87/86/23 86/75/22 150/108/22 151/110/23
f 74/89/10 73/88/9 137/111/9 138/112/10
f 88/93/24 87/86/23 151/110/23 152/113/24
f 75/96/11 74/89/10 138/112/10 139/114/11
f 89/100/25 88/93/24 152/113/24 153/115/25
f 76/72/12 75/96/11 139/114/11 140/116/12
f 90/82/26 89/100/25 153/115/25 154/117/26
f 77/73/13 76/72/12 140/116/12 141/118/13
f 91/83/27 90/82/26 154/117/26 155/119/27
f 78/85/14 77/73/13 141/118/13 142/120/14
f 92/91/28 91/83/27 155/119/27 156/121/28
f 79/92/15 78/85/14 142/120/14 143/122/15
f 65/95/2 66/94/1 130/123/1 129/124/2
f 93/98/29 92/91/28 156/121/28 157/125/29
f 80/99/16 79/92/15 143/122/15 144/126/16
f 67/64/3 65/95/2 129/124/2 131/127/3
f 94/76/30 93/98/29 157/125/29 158/128/30
f 81/80/17 80/99/16 144/126/16 145/129/17
f 68/65/4 67/64/3 131/127/3 132/130/4
f 95/77/31 94/76/30 158/128/30 159/131/31
f 82/81/18 81/80/17 145/129/17 146/132/18
f 69/84/5 68/65/4 132/130/4 133/133/5
f 96/87/33 95/77/31 159/131/31 160/134/33
f 83/90/19 82/81/18 146/132/18 147/135/19
f 70/69/6 69/84/5 133/133/5 134/70/6
f 66/94/1 96/87/33 160/134/33 130/123/1
f 84/97/20 83/90/19 147/135/19 148/105/20
f 98/136/34 97/137/34 129/124/34 130/123/34
f 97/137/34 99/138/34 131/127/34 129/124/34
f 99/138/34 100/139/34 132/130/34 131/127/34
f 100/139/34 101/140/34 133/133/34 132/130/34
f 101/140/34 102/141/34 134/70/34 133/133/34
f 102/141/34 103/142/34 135/71/34 134/70/34
f 103/142/34 104/143/34 136/107/34 135/71/34
f 104/143/34 105/144/34 137/109/34 136/107/34
f 105/145/34 106/146/34 138/112/34 137/111/34
f 106/146/34 107/147/34 139/114/34 138/112/34
f 107/147/34 108/148/34 140/116/34 139/114/34
f 108/148/34 109/149/34 141/118/34 140/116/34
f 109/149/34 110/150/34 142/120/34 141/118/34
f 110/150/34 111/151/34 143/122/34 142/120/34
f 111/151/34 112/152/34 144/126/34 143/122/34
f 112/152/34 113/153/34 145/129/34 144/126/34
f 113/153/34 114/154/34 146/132/34 145/129/34
f 114/154/34 115/155/34 147/135/34 146/132/34
f 115/155/34 116/156/34 148/105/34 147/135/34
f 116/156/34 117/157/34 149/106/34 148/105/34
f 117/157/34 118/158/34 150/108/34 149/106/34
f 118/158/34 119/159/34 151/110/34 150/108/34
f 119/159/34 120/160/34 152/113/34 151/110/34
f 120/160/34 121/161/34 153/115/34 152/113/34
f 121/161/34 122/102/34 154/117/34 153/115/34
f 122/102/34 123/101/34 155/119/34 154/117/34
f 123/101/34 124/162/34 156/121/34 155/119/34
f 124/162/34 125/163/34 157/125/34 156/121/34
f 125/163/34 126/164/34 158/128/34 157/125/34
f 126/164/34 127/165/34 159/131/34 158/128/34
f 127/165/34 128/166/34 160/134/34 159/131/34
f 128/166/34 98/136/34 130/123/34 160/134/34
f 161/167/34 162/168/34 192/169/34 191/170/34 190/171/34 189/172/34 188/173/34 187/104/34 186/103/34 185/174/34 184/175/34 183/176/34 182/177/34 181/178/34 180/179/34 179/180/34 178/181/34 177/182/34 176/183/34 175/184/34 174/185/34 173/186/34 172/187/34 171/188/34 170/189/34 169/190/34 168/191/34 167/192/34 166/193/34 165/194/34 164/195/34 163/196/34
f 110/150/30 109/149/29 173/186/29 174/185/30
f 124/162/12 123/101/11 187/104/11 188/173/12
f 111/151/31 110/150/30 174/185/30 175/184/31
f 97/137/18 98/136/17 162/168/17 161/167/18
f 125/163/13 124/162/12 188/173/12 189/172/13
f 112/152/33 111/151/31 175/184/31 176/183/33
f 99/138/19 97/137/18 161/167/18 163/196/19
f 126/164/14 125/163/13 189/172/13 190/171/14
f 113/153/1 112/152/33 176/183/33 177/182/1
f 100/139/20 99/138/19 163/196/19 164/195/20
f 127/165/15 126/164/14 190/171/14 191/170/15
f 114/154/2 113/153/1 177/182/1 178/181/2
f 101/140/21 100/139/20 164/195/20 165/194/21
f 128/166/16 127/165/15 191/170/15 192/169/16
f 115/155/3 114/154/2 178/181/2 179/180/3
f 102/141/22 101/140/21 165/194/21 166/193/22
f 98/136/17 128/166/16 192/169/16 162/168/17
f 116/156/4 115/155/3 179/180/3 180/179/4
f 103/142/23 102/141/22 166/193/22 167/192/23
f 117/157/5 116/156/4 180/179/4 181/178/5
f 104/143/24 103/142/23 167/192/23 168/191/24
f 118/158/6 117/157/5 181/178/5 182/177/6
f 105/144/25 104/143/24 168/191/24 169/190/25
f 119/159/7 118/158/6 182/177/6 183/176/7
f 106/146/26 105/145/25 169/190/25 170/189/26
f 120/160/8 119/159/7 183/176/7 184/175/8
f 107/147/27 106/146/26 170/189/26 171/188/27
f 121/161/9 120/160/8 184/175/8 185/174/9
f 108/148/28 107/147/27 171/188/27 172/187/28
f 122/102/10 121/161/9 185/174/9 186/103/10
f 109/149/29 108/148/28 172/187/28 173/186/29
